# xmcd
#
# Track frame offsets:
#	150
#	21092
#	59095
#
# Disc length: 4187 seconds
# Revision: 0
# Processed by: cddbd v1.5.2PL0 Copyright (c) Steve Scherf et al.
# Submitted via: dBpowerAMP V12.0
#
DISCID=23105903
DTITLE=Boyzone - No Matter What
DYEAR=1999
DGENRE=Pop
TTITLE0=No Matter What [Single Version]
TTITLE1=No Matter What [Jewels and Stone Remix]
TTITLE2=DATA
EXTD=
EXTT0=
EXTT1=
EXTT2=
PLAYORDER=
